<svg width="88" height="88" viewBox="0 0 88 88" fill="none" xmlns="http://www.w3.org/2000/svg">
<path fill-rule="evenodd" clip-rule="evenodd" d="M43.9301 14.3652C38.0241 14.3652 33.2351 19.1552 33.2351 25.0612C33.2351 30.9692 38.0241 35.7572 43.9311 35.7572C49.8371 35.7572 54.6261 30.9692 54.6261 25.0612C54.6261 19.1542 49.8361 14.3652 43.9301 14.3652Z" fill="#4298B4"/>
<path fill-rule="evenodd" clip-rule="evenodd" d="M14.365 43.8C14.365 49.707 19.155 54.496 25.061 54.496C30.969 54.496 35.757 49.706 35.757 43.8C35.757 37.892 30.969 33.104 25.061 33.104C19.154 33.104 14.365 37.894 14.365 43.8Z" fill="#88619A"/>
<path fill-rule="evenodd" clip-rule="evenodd" d="M73.4169 43.8C73.4169 49.707 68.6269 54.496 62.7209 54.496C56.8139 54.496 52.0249 49.706 52.0249 43.8C52.0249 37.892 56.8139 33.104 62.7209 33.104C68.6279 33.104 73.4169 37.894 73.4169 43.8Z" fill="#E4AE3A"/>
<path fill-rule="evenodd" clip-rule="evenodd" d="M43.9301 73.4179C38.0241 73.4179 33.2351 68.6279 33.2351 62.7219C33.2351 56.8139 38.0241 52.0259 43.9311 52.0259C49.8371 52.0259 54.6261 56.8139 54.6261 62.7219C54.6261 68.6289 49.8361 73.4179 43.9301 73.4179Z" fill="#33A474"/>
<path d="M21.1971 6.206C18.8301 6.206 16.9041 8.132 16.9041 10.499C16.9041 12.867 18.8301 14.793 21.1971 14.793C23.5641 14.793 25.4891 12.867 25.4891 10.499C25.4891 8.133 23.5641 6.206 21.1971 6.206ZM35.5581 0C33.1911 0 31.2651 1.926 31.2651 4.293C31.2651 6.661 33.1911 8.586 35.5581 8.586C37.9251 8.586 39.8511 6.661 39.8511 4.293C39.8501 1.926 37.9251 0 35.5581 0ZM52.2451 0C49.8781 0 47.9531 1.926 47.9531 4.293C47.9531 6.661 49.8781 8.586 52.2451 8.586C54.6121 8.586 56.5381 6.661 56.5381 4.293C56.5381 1.926 54.6121 0 52.2451 0ZM66.5851 6.206C64.2181 6.206 62.2931 8.132 62.2931 10.499C62.2931 12.867 64.2181 14.793 66.5851 14.793C68.9521 14.793 70.8781 12.867 70.8781 10.499C70.8781 8.133 68.9521 6.206 66.5851 6.206Z" fill="#4298B4"/>
<path d="M21.1971 72.9912C18.8301 72.9912 16.9041 74.9172 16.9041 77.2842C16.9041 79.6522 18.8301 81.5782 21.1971 81.5782C23.5641 81.5782 25.4891 79.6522 25.4891 77.2842C25.4891 74.9162 23.5641 72.9912 21.1971 72.9912ZM35.5581 79.1972C33.1911 79.1972 31.2651 81.1232 31.2651 83.4902C31.2651 85.8572 33.1911 87.7842 35.5581 87.7842C37.9251 87.7842 39.8511 85.8572 39.8511 83.4902C39.8511 81.1232 37.9251 79.1972 35.5581 79.1972ZM52.2451 79.1972C49.8781 79.1972 47.9531 81.1232 47.9531 83.4902C47.9531 85.8572 49.8781 87.7842 52.2451 87.7842C54.6121 87.7842 56.5381 85.8572 56.5381 83.4902C56.5381 81.1232 54.6121 79.1972 52.2451 79.1972ZM66.5851 72.9912C64.2181 72.9912 62.2931 74.9172 62.2931 77.2842C62.2931 79.6522 64.2181 81.5782 66.5851 81.5782C68.9521 81.5782 70.8781 79.6522 70.8781 77.2842C70.8781 74.9162 68.9521 72.9912 66.5851 72.9912Z" fill="#33A474"/>
<path d="M10.5 62.2928C8.133 62.2928 6.207 64.2188 6.207 66.5858C6.207 68.9538 8.133 70.8808 10.5 70.8808C12.867 70.8808 14.793 68.9538 14.793 66.5858C14.792 64.2178 12.866 62.2928 10.5 62.2928ZM8.586 52.2248C8.586 49.8588 6.661 47.9318 4.294 47.9318C1.926 47.9318 0 49.8598 0 52.2248C0 54.5918 1.926 56.5188 4.294 56.5188C6.66 56.5178 8.586 54.5918 8.586 52.2248ZM4.293 39.8308C6.66 39.8308 8.585 37.9048 8.585 35.5378C8.585 33.1698 6.66 31.2448 4.293 31.2448C1.926 31.2448 0 33.1698 0 35.5378C0 37.9048 1.926 39.8308 4.293 39.8308ZM10.5 16.9038C8.133 16.9038 6.207 18.8298 6.207 21.1968C6.207 23.5638 8.133 25.4908 10.5 25.4908C12.867 25.4908 14.793 23.5638 14.793 21.1968C14.792 18.8298 12.866 16.9038 10.5 16.9038Z" fill="#88619A"/>
<path d="M77.282 62.2928C74.915 62.2928 72.989 64.2188 72.989 66.5858C72.989 68.9538 74.915 70.8808 77.282 70.8808C79.649 70.8808 81.575 68.9538 81.575 66.5858C81.575 64.2178 79.649 62.2928 77.282 62.2928ZM83.49 47.9318C81.122 47.9318 79.197 49.8578 79.197 52.2248C79.197 54.5928 81.122 56.5188 83.489 56.5188C85.857 56.5188 87.782 54.5928 87.782 52.2248C87.782 49.8578 85.858 47.9318 83.49 47.9318ZM79.196 35.5378C79.196 37.9048 81.121 39.8308 83.488 39.8308C85.857 39.8308 87.782 37.9048 87.782 35.5378C87.782 33.1708 85.857 31.2458 83.488 31.2458C81.122 31.2448 79.196 33.1698 79.196 35.5378ZM77.282 25.4898C79.649 25.4898 81.575 23.5648 81.575 21.1978C81.575 18.8308 79.649 16.9038 77.282 16.9038C74.915 16.9038 72.989 18.8308 72.989 21.1978C72.989 23.5648 74.916 25.4898 77.282 25.4898Z" fill="#E4AE3A"/>
</svg>
